HIERARCHY
ROOT Hips
{
  OFFSET 21.309 103.932 -258.385
  CHANNELS 6 Xposition Yposition Zposition Zrotation Xrotation Yrotation
  JOINT RightUpLeg
  {
    OFFSET -8.9458 -8.66707 0.101652
    CHANNELS 3 Zrotation Xrotation Yrotation
    JOINT RightLeg
    {
      OFFSET 0 -44.4227 1.3727
      CHANNELS 3 Zrotation Xrotation Yrotation
      JOINT RightFoot
      {
        OFFSET 0.253549 -42.0924 -1.46059
        CHANNELS 3 Zrotation Xrotation Yrotation
        JOINT RightToes
        {
          OFFSET 0.04 -4.41509 8.4991
          CHANNELS 3 Zrotation Xrotation Yrotation
          End Site
          {
            OFFSET -0.08 -0.137448 9.77979
          }
        }
      }
    }
  }
  JOINT Spine
  {
    OFFSET 0 11.8905 0
    CHANNELS 3 Zrotation Xrotation Yrotation
    JOINT Spine1
    {
      OFFSET 0 25.6574 0.127663
      CHANNELS 3 Zrotation Xrotation Yrotation
      JOINT HEad
      {
        OFFSET 0 8.73416 0.011341
        CHANNELS 3 Zrotation Xrotation Yrotation
        End Site
        {
          OFFSET -0.29 12.7742 2.51395
        }
      }
      JOINT LeftShoulder1
      {
        OFFSET 8.99 -0.362252 -0.22
        CHANNELS 3 Zrotation Xrotation Yrotation
        JOINT LeftArm
        {
          OFFSET 10.2827 -0.00338 0.322123
          CHANNELS 3 Zrotation Xrotation Yrotation
          JOINT LeftForeArm
          {
            OFFSET 32.7669 0.099144 -1.42434
            CHANNELS 3 Zrotation Xrotation Yrotation
            JOINT LeftHand
            {
              OFFSET 27.5643 0.085362 1.02216
              CHANNELS 3 Zrotation Xrotation Yrotation
              End Site
              {
                OFFSET 16.7443 -0.6 1.50291
              }
            }
          }
        }
      }
      JOINT RightShoulder
      {
        OFFSET -8.99 -0.362252 -0.22
        CHANNELS 3 Zrotation Xrotation Yrotation
        JOINT RightArm
        {
          OFFSET -10.2827 -0.00338 0.322123
          CHANNELS 3 Zrotation Xrotation Yrotation
          JOINT RightForeArm
          {
            OFFSET -32.8971 0.099144 -1.42434
            CHANNELS 3 Zrotation Xrotation Yrotation
            JOINT RightHand
            {
              OFFSET -27.4921 0.085362 1.02216
              CHANNELS 3 Zrotation Xrotation Yrotation
              End Site
              {
                OFFSET -16.6312 -0.6 1.50291
              }
            }
          }
        }
      }
    }
  }
  JOINT LeftUpLeg
  {
    OFFSET 8.9458 -8.66707 0.101652
    CHANNELS 3 Zrotation Xrotation Yrotation
    JOINT LeftLeg
    {
      OFFSET 0 -44.4227 1.3727
      CHANNELS 3 Zrotation Xrotation Yrotation
      JOINT LeftFoot
      {
        OFFSET -0.253549 -42.0924 -1.46059
        CHANNELS 3 Zrotation Xrotation Yrotation
        JOINT LeftToes
        {
          OFFSET -0.04 -4.41509 8.4991
          CHANNELS 3 Zrotation Xrotation Yrotation
          End Site
          {
            OFFSET 0.08 -0.047448 9.77979
          }
        }
      }
    }
  }
}
MOTION
Frames:	8
Frame Time:	0.0166667
16.2413 103.523 -87.2545 -1.77406 -4.87527 -0.543675 9.57316 -14.1278 -7.89093 -5.89027 3.03965 -6.49686 -7.60423 3.27095 0.297035 0.0462048 0.000533964 0.662642 -3.68783 3.104 -1.04 -6.26267 6.17787 0.16861 9.23928 4.22354 -7.05542 -1.3418e-015 1.59028e-015 -0 -89.6854 -5.94609 -33.4775 -20.8478 12.5433 -2.56892 0.368473 9.90896 -0.00117926 8.10477 -0.968852 -9.69638 78.7322 -36.241 4.45928 16.5246 11.768 -3.20363 -0.369625 9.91382 0.00119886 -3.81881 11.306 10.1193 4.30149 31.557 5.31311 -4.15724 -21.5408 -0.597431 6.77857 -9.2954 5.82976 
16.0137 103.653 -85.1325 -2.15217 -5.02346 -0.466849 10.1563 -13.1905 -7.04466 -5.74344 3.16652 -6.32056 -8.75616 6.05605 0.561165 0.0462048 0.000533964 0.662642 -3.26076 3.24894 -0.950199 -5.92012 5.59647 0.127772 9.01747 5.13684 -7.18302 -3.27995e-015 -7.95139e-016 7.95139e-016 -90.1209 -6.61403 -32.3078 -20.7326 12.4506 -2.07115 0.368473 9.90896 -0.00117926 8.35093 -1.00444 -9.83585 77.6323 -36.535 3.64659 16.6511 11.7154 -3.47488 -0.369625 9.91382 0.00119886 -3.11028 12.3071 10.8495 5.18902 31.8981 4.48095 -4.86451 -20.4 -0.665036 3.0327 -7.14294 2.3791 
15.8182 103.866 -83.0167 -2.66373 -4.96441 -0.418496 10.5662 -12.5629 -3.42495 -5.08924 4.16526 -8.86716 -9.08895 7.12054 0.668894 0.0462048 0.000533964 0.662642 -3.00495 3.39361 -0.770512 -5.05844 4.75342 0.0555958 8.51064 5.87337 -7.3969 -7.0817e-016 3.97569e-016 -0 -90.9293 -7.36635 -31.2319 -20.4996 12.2923 -1.18352 0.368473 9.90896 -0.00117926 8.43079 -1.03945 -10.0261 76.5248 -36.815 3.05028 16.738 11.6682 -3.73453 -0.369625 9.91382 0.00119886 -2.28452 12.5626 11.3735 6.3862 32.9359 3.62105 -5.77769 -18.8527 -0.727986 -0.610065 -4.10512 -0.940367 
15.6181 104.109 -80.8867 -3.26898 -4.92765 -0.447597 10.9738 -11.8366 0.356328 -4.25578 5.35497 -11.6958 -9.14797 7.34121 0.700914 0.0462048 0.000533964 0.662642 -2.88702 3.50886 -0.525801 -3.94139 4.01224 -0.0158484 7.93552 6.37993 -7.58017 2.41026e-015 0 -0 -91.8819 -8.18106 -30.1884 -20.1145 12.1226 -0.171532 0.368473 9.90896 -0.00117926 8.36494 -1.06676 -10.2225 75.721 -37.0236 2.81488 16.7481 11.6298 -3.99316 -0.369625 9.91382 0.00119886 -1.29668 12.3101 11.8524 7.82215 34.6316 2.91416 -6.7874 -16.7465 -0.739235 -4.45427 -0.119035 -4.3154 
15.3901 104.316 -78.695 -3.96092 -5.15568 -0.672299 11.6998 -10.7485 1.9535 -3.76818 6.36569 -12.738 -9.23377 6.96597 0.680382 0.0462048 0.000533964 0.662642 -3.0317 3.53939 -0.180431 -2.62463 3.76204 -0.0565914 7.39418 6.47407 -7.60508 2.40405e-015 0 1.98785e-016 -92.8805 -9.02958 -29.123 -19.491 12.0109 0.671087 0.368473 9.90896 -0.00117926 8.02716 -1.07116 -10.3829 75.6952 -37.1055 3.23401 16.5827 11.603 -4.3084 -0.369625 9.91382 0.00119886 -0.0745238 11.6552 12.4929 9.45933 37.1884 2.80669 -7.97666 -13.8118 -0.650368 -9.2334 5.59198 -8.18324 
15.1311 104.494 -76.5492 -4.65703 -5.45834 -0.916704 12.5345 -9.57317 2.0381 -3.58497 7.27037 -12.5418 -9.32865 6.14935 0.622713 0.0462048 0.000533964 0.662642 -3.17002 3.53827 0.148753 -1.40148 3.80429 -0.080615 7.00753 6.29879 -7.57779 8.88319e-016 0 1.98785e-016 -93.7696 -9.88639 -28.1826 -18.7842 11.9135 1.50969 0.368473 9.90896 -0.00117926 7.66906 -1.07099 -10.5238 76.1113 -37.0421 4.06474 16.3637 11.5916 -4.5573 -0.369625 9.91382 0.00119886 1.25174 10.5256 13.0063 11.1462 40.369 2.55948 -8.87206 -10.36 -0.479908 -12.7409 10.8833 -11.3253 
14.8094 104.612 -74.5479 -5.27973 -5.73189 -1.03963 13.4774 -8.47508 -0.0832325 -3.9698 8.03804 -10.4151 -9.55056 5.0287 0.54491 0.0462048 0.000533964 0.662642 -3.00463 3.53973 0.33072 -0.660688 4.13042 -0.089331 7.02145 5.90082 -7.54966 -2.41026e-015 -3.97569e-016 -1.98785e-016 -94.3071 -10.719 -27.5182 -18.1271 11.8061 2.41927 0.368473 9.90896 -0.00117926 7.54453 -1.08578 -10.672 76.8379 -36.7986 5.20191 16.1524 11.602 -4.64581 -0.369625 9.91382 0.00119886 2.59159 8.84166 13.2681 13.0138 44.058 1.02742 -8.87772 -6.44352 -0.190229 -13.5209 13.6333 -11.9053 
14.4876 104.713 -72.6712 -5.79327 -5.96035 -1.05379 14.3888 -7.37464 -2.64536 -4.48663 8.55781 -7.99789 -9.79794 3.90334 0.465975 0.0462048 0.000533964 0.662642 -2.74782 3.54561 0.44379 -0.17565 4.55963 -0.0901594 7.17282 5.38513 -7.56144 -2.42269e-016 0 1.98785e-016 -94.6973 -11.5058 -27.0673 -17.4913 11.6965 3.3754 0.368473 9.90896 -0.00117926 7.51988 -1.09665 -10.7548 77.6821 -36.3571 6.49389 16.0326 11.6299 -4.54478 -0.369625 9.91382 0.00119886 3.80449 6.71704 13.0314 14.9862 48.0487 -0.669989 -8.46149 -2.56878 0.10874 -13.2966 15.245 -11.3705 
